<?xml version="1.0" standalone="no"?>
<!DOCTYPE svg PUBLIC "-//W3C//DTD SVG 20010904//EN"
 "http://www.w3.org/TR/2001/REC-SVG-20010904/DTD/svg10.dtd">
<svg version="1.0" xmlns="http://www.w3.org/2000/svg"
 width="128.000000pt" height="128.000000pt" viewBox="0 0 128.000000 128.000000"
 preserveAspectRatio="xMidYMid meet">
<metadata>
Created by potrace 1.11, written by Peter Selinger 2001-2013
</metadata>
<g transform="translate(0.000000,128.000000) scale(0.100000,-0.100000)"
fill="#000000" stroke="none">
<path d="M606 1234 c10 -73 11 -159 3 -189 -11 -40 -55 -77 -86 -73 -27 3 -24
8 -79 -147 -14 -38 -27 -97 -30 -130 -7 -85 -8 -91 -23 -109 -16 -19 -50 -20
-73 -2 -25 18 -46 75 -42 114 1 17 -1 32 -6 32 -15 0 -67 -82 -85 -135 -50
-145 -37 -216 65 -356 47 -64 49 -69 27 -69 -12 0 -33 7 -45 16 -12 8 -22 11
-22 5 0 -20 126 -115 200 -150 71 -34 81 -36 191 -38 107 -2 163 5 214 26 11
5 36 15 55 22 46 17 170 91 170 101 0 5 -11 6 -25 2 -14 -3 -25 -2 -25 4 0 9
35 59 56 77 28 26 72 94 84 128 16 51 13 198 -6 228 -3 5 -7 18 -9 29 -7 34
-45 113 -52 107 -3 -4 -8 -19 -9 -34 -4 -34 -31 -55 -58 -47 -37 11 -46 33
-39 98 13 134 5 182 -42 251 -44 64 -113 131 -209 200 -16 11 -33 25 -40 31
-6 6 -23 18 -38 28 l-28 18 6 -38z"/>
<path d="M295 961 c-3 -11 -22 -39 -41 -62 -19 -22 -35 -44 -35 -47 -1 -4 -2
-28 -4 -54 l-2 -47 23 17 c37 27 75 105 76 157 1 51 -7 67 -17 36z"/>
</g>
</svg>
